<svg height="2900" viewBox="0 0 2250 2900" width="2250" xmlns="http://www.w3.org/2000/svg"><path d="m0 0h2250v2900h-2250z" fill="#202020" fill-rule="evenodd"/><path d="m150 0h2100v147.059h-2100z" fill="#969696" fill-opacity=".519222" fill-rule="evenodd"/><path d="m150 150v2750h-150.00017734s.0001202-2750 .0001202-2750z" fill="#969696" fill-opacity=".519222" fill-rule="evenodd"/><path d="m350 275c0-13.807 11.193-25 25-25h1650c13.81 0 25 11.193 25 25v104.687c0 13.808-11.19 25-25 25h-1650c-13.807 0-25-11.192-25-25z" fill="#128500" fill-rule="evenodd"/><path d="m450 925c0-13.807 11.193-25 25-25h1450c13.81 0 25 11.193 25 25v104.69c0 13.8-11.19 25-25 25h-1450c-13.807 0-25-11.2-25-25z" fill="#a82200" fill-rule="evenodd"/><path d="m450 1575.32c0-13.81 11.193-25 25-25h250c13.807 0 25 11.19 25 25v250c0 13.81-11.193 25-25 25h-250c-13.807 0-25-11.19-25-25z" fill="#5816ff" fill-rule="evenodd"/><path d="m848.745 1575.32c0-13.81 11.192-25 25-25h249.995c13.81 0 25 11.19 25 25v250c0 13.81-11.19 25-25 25h-249.995c-13.808 0-25-11.19-25-25z" fill="#5816ff" fill-rule="evenodd"/><path d="m1248.74 1575.32c0-13.81 11.2-25 25-25h250c13.81 0 25 11.19 25 25v250c0 13.81-11.19 25-25 25h-250c-13.8 0-25-11.19-25-25z" fill="#5816ff" fill-rule="evenodd"/><path d="m450 1875.05c0-13.81 11.193-25 25-25h250c13.807 0 25 11.19 25 25v50c0 13.81-11.193 25-25 25h-250c-13.807 0-25-11.19-25-25z" fill="#4758ff" fill-rule="evenodd"/><path d="m848.745 1875.05c0-13.81 11.192-25 25-25h249.995c13.81 0 25 11.19 25 25v50c0 13.81-11.19 25-25 25h-249.995c-13.808 0-25-11.19-25-25z" fill="#4758ff" fill-rule="evenodd"/><path d="m1248.74 1875.05c0-13.81 11.2-25 25-25h250c13.81 0 25 11.19 25 25v50c0 13.81-11.19 25-25 25h-250c-13.8 0-25-11.19-25-25z" fill="#4758ff" fill-rule="evenodd"/><path d="m450 1975.05c0-13.8 11.193-25 25-25h250c13.807 0 25 11.2 25 25v50c0 13.81-11.193 25-25 25h-250c-13.807 0-25-11.19-25-25z" fill="#5816ff" fill-rule="evenodd"/><path d="m450 2075c0-13.81 11.193-25 25-25h250c13.807 0 25 11.19 25 25v50c0 13.81-11.193 25-25 25h-250c-13.807 0-25-11.19-25-25z" fill="#5816ff" fill-rule="evenodd"/><path d="m850 2175c0-13.81 11.193-25 25-25h250c13.81 0 25 11.19 25 25v50c0 13.81-11.19 25-25 25h-250c-13.807 0-25-11.19-25-25z" fill="#5816ff" fill-rule="evenodd"/><path d="m1650 1875.05c0-13.81 11.19-25 25-25h250c13.81 0 25 11.19 25 25v50c0 13.81-11.19 25-25 25h-250c-13.81 0-25-11.19-25-25z" style="fill:none;stroke:#4758ff;stroke-linecap:round;stroke-linejoin:round;stroke-miterlimit:10;stroke-width:3"/><path d="m1650 1975.05c0-13.8 11.19-25 25-25h250c13.81 0 25 11.2 25 25v50c0 13.81-11.19 25-25 25h-250c-13.81 0-25-11.19-25-25z" style="fill:none;stroke:#5816ff;stroke-linecap:round;stroke-linejoin:round;stroke-miterlimit:10;stroke-width:3"/><path d="m1650 2075c0-13.81 11.19-25 25-25h250c13.81 0 25 11.19 25 25v50c0 13.81-11.19 25-25 25h-250c-13.81 0-25-11.19-25-25z" style="fill:none;stroke:#4758ff;stroke-linecap:round;stroke-linejoin:round;stroke-miterlimit:10;stroke-width:3"/><path d="m1650 2175c0-13.81 11.19-25 25-25h250c13.81 0 25 11.19 25 25v50c0 13.81-11.19 25-25 25h-250c-13.81 0-25-11.19-25-25z" style="fill:none;stroke:#5816ff;stroke-linecap:round;stroke-linejoin:round;stroke-miterlimit:10;stroke-width:3"/><path d="m848.745 1975.05c0-13.8 11.192-25 25-25h249.995c13.81 0 25 11.2 25 25v50c0 13.81-11.19 25-25 25h-249.995c-13.808 0-25-11.19-25-25z" fill="#5816ff" fill-rule="evenodd"/><path d="m848.745 2075.26c0-13.81 11.192-25 25-25h249.995c13.81 0 25 11.19 25 25v50c0 13.8-11.19 25-25 25h-249.995c-13.808 0-25-11.2-25-25z" fill="#5816ff" fill-rule="evenodd"/><path d="m1248.74 1975.05c0-13.8 11.2-25 25-25h250c13.81 0 25 11.2 25 25v50c0 13.81-11.19 25-25 25h-250c-13.8 0-25-11.19-25-25z" fill="#5816ff" fill-rule="evenodd"/><path d="m1650 1575.32c0-13.81 11.19-25 25-25h250c13.8 0 25 11.19 25 25v250c0 13.81-11.2 25-25 25h-250c-13.81 0-25-11.19-25-25z" style="fill:none;stroke:#5816ff;stroke-linecap:round;stroke-linejoin:round;stroke-miterlimit:10;stroke-width:3"/><path d="m450 525c0-13.807 11.193-25 25-25h250c13.807 0 25 11.193 25 25v250c0 13.807-11.193 25-25 25h-250c-13.807 0-25-11.193-25-25z" fill="#00ab2a" fill-rule="evenodd"/><path d="m850 524.682c0-13.807 11.193-25 25-25h250c13.81 0 25 11.193 25 25v250c0 13.807-11.19 25-25 25h-250c-13.807 0-25-11.193-25-25z" fill="#00ab2a" fill-rule="evenodd"/><path d="m1256.69 525c0-13.807 11.2-25 25-25h250c13.81 0 25 11.193 25 25v250c0 13.807-11.19 25-25 25h-250c-13.8 0-25-11.193-25-25z" fill="#00ab2a" fill-rule="evenodd"/><path d="m1650 525c0-13.807 11.19-25 25-25h250c13.81 0 25 11.193 25 25v250c0 13.807-11.19 25-25 25h-250c-13.81 0-25-11.193-25-25z" style="fill:none;stroke:#00ab2a;stroke-linecap:round;stroke-linejoin:round;stroke-miterlimit:10;stroke-width:3"/><path d="m450 2374.37c0-13.81 11.193-25 25-25h250c13.807 0 25 11.19 25 25v250c0 13.8-11.193 25-25 25h-250c-13.807 0-25-11.2-25-25z" fill="#d600ab" fill-rule="evenodd"/><path d="m850 2374.05c0-13.81 11.193-25 25-25h250c13.81 0 25 11.19 25 25v250c0 13.81-11.19 25-25 25h-250c-13.807 0-25-11.19-25-25z" fill="#d600ab" fill-rule="evenodd"/><path d="m1256.69 2374.37c0-13.81 11.2-25 25-25h250c13.81 0 25 11.19 25 25v250c0 13.8-11.19 25-25 25h-250c-13.8 0-25-11.2-25-25z" fill="#d600ab" fill-rule="evenodd"/><path d="m1650 2374.37c0-13.81 11.19-25 25-25h250c13.81 0 25 11.19 25 25v250c0 13.8-11.19 25-25 25h-250c-13.81 0-25-11.2-25-25z" style="fill:none;stroke:#d600ab;stroke-linecap:round;stroke-linejoin:round;stroke-miterlimit:10;stroke-width:3"/><path d="m450 1175.32c0-13.81 11.193-25 25-25h250c13.807 0 25 11.19 25 25v250c0 13.81-11.193 25-25 25h-250c-13.807 0-25-11.19-25-25z" fill="#ff4d42" fill-rule="evenodd"/><path d="m850 1175c0-13.81 11.193-25 25-25h250c13.81 0 25 11.19 25 25v250c0 13.81-11.19 25-25 25h-250c-13.807 0-25-11.19-25-25z" fill="#ff4d42" fill-rule="evenodd"/><path d="m1256.69 1175.32c0-13.81 11.2-25 25-25h250c13.81 0 25 11.19 25 25v250c0 13.8-11.19 25-25 25h-250c-13.8 0-25-11.2-25-25z" fill="#ff4d42" fill-rule="evenodd"/><g fill="none" stroke-linecap="round" stroke-linejoin="round" stroke-miterlimit="10"><path d="m1649.99 1175.32c0-13.81 11.19-25 25-25h250c13.8 0 25 11.19 25 25v250c0 13.8-11.2 25-25 25h-250c-13.81 0-25-11.2-25-25z" stroke="#ff4d42" stroke-width="3"/><path d="m1400 2072.83v241.78" stroke="#505050" stroke-width="10"/><path d="m1400 1479.72v35.9" stroke="#505050" stroke-width="10"/><path d="m1000 1479.72v35.9" stroke="#505050" stroke-width="10"/><path d="m600 1479.72v35.9" stroke="#505050" stroke-width="10"/><path d="m600 2168.05v146.56" stroke="#505050" stroke-width="10"/><path d="m1000 2275v39.61" stroke="#505050" stroke-width="10"/><path d="m1400 1078.34v37.28" stroke="#505050" stroke-width="10"/><path d="m1799.56 1078.34v37.28" stroke="#505050" stroke-width="10"/><path d="m1000 1078.34v37.28" stroke="#505050" stroke-width="10"/><path d="m600 1078.34v37.28" stroke="#505050" stroke-width="10"/><path d="m600 426.093v39.532" stroke="#505050" stroke-width="10"/><path d="m600 829.38v36.245" stroke="#505050" stroke-width="10"/><path d="m1000 426.093v39.532" stroke="#505050" stroke-width="10"/><path d="m1000 829.38v36.245" stroke="#505050" stroke-width="10"/><path d="m1400 426.093v39.532" stroke="#505050" stroke-width="10"/><path d="m1400 829.38v36.245" stroke="#505050" stroke-width="10"/><path d="m1799.56 423.071v42.554" stroke="#505050" stroke-width="10"/><path d="m1400 2675v125" stroke="#505050" stroke-width="10"/><path d="m2100 350h50" stroke="#505050" stroke-width="10"/><path d="m313.563 350h-63.563" stroke="#505050" stroke-width="10"/><path d="m250 2800h750" stroke="#505050" stroke-width="10"/><path d="m1000 2800v-125" stroke="#505050" stroke-width="10"/><path d="m1799.56 1479.72v35.9" stroke="#505050" stroke-width="10"/><path d="m1799.56 2275.06v39.61" stroke="#505050" stroke-width="10"/><path d="m1799.56 829.38v36.245" stroke="#505050" stroke-width="10"/></g><path d="m1400 1134.37s-21.65-37.5-21.65-37.5h43.3s-21.65 37.5-21.65 37.5z" fill="#505050"/><path d="m1000 1134.37s-21.651-37.5-21.651-37.5h43.301s-21.65 37.5-21.65 37.5z" fill="#505050"/><path d="m600 1134.37s-21.65-37.5-21.65-37.5h43.301s-21.651 37.5-21.651 37.5z" fill="#505050"/><path d="m1400 1534.38s-21.65-37.5-21.65-37.5h43.3s-21.65 37.5-21.65 37.5z" fill="#505050"/><path d="m1000 1534.38s-21.651-37.5-21.651-37.5h43.301s-21.65 37.5-21.65 37.5z" fill="#505050"/><path d="m600 1534.38s-21.65-37.5-21.65-37.5h43.301s-21.651 37.5-21.651 37.5z" fill="#505050"/><path d="m1400 2333.5s-21.65-37.5-21.65-37.5h43.3s-21.65 37.5-21.65 37.5z" fill="#505050"/><path d="m1000 2333.5s-21.651-37.5-21.651-37.5h43.301s-21.65 37.5-21.65 37.5z" fill="#505050"/><path d="m600 2333.5s-21.651-37.5-21.651-37.5h43.302s-21.651 37.5-21.651 37.5z" fill="#505050"/><path d="m1400 884.375s-21.65-37.5-21.65-37.5h43.3s-21.65 37.5-21.65 37.5z" fill="#505050"/><path d="m1000 884.375s-21.651-37.5-21.651-37.5h43.301s-21.65 37.5-21.65 37.5z" fill="#505050"/><path d="m600 884.375s-21.65-37.5-21.65-37.5h43.301s-21.651 37.5-21.651 37.5z" fill="#505050"/><path d="m1799.56 2333.42s-21.65-37.5-21.65-37.5h43.3s-21.65 37.5-21.65 37.5z" fill="#505050"/><path d="m1799.56 1534.37s-21.65-37.5-21.65-37.5h43.3s-21.65 37.5-21.65 37.5z" fill="#505050"/><path d="m1799.56 1134.38s-21.65-37.5-21.65-37.5h43.3s-21.65 37.5-21.65 37.5z" fill="#505050"/><path d="m1799.56 884.375s-21.65-37.5-21.65-37.5h43.3s-21.65 37.5-21.65 37.5z" fill="#505050"/><path d="m1400 484.375s-21.65-37.5-21.65-37.5h43.3s-21.65 37.5-21.65 37.5z" fill="#505050"/><path d="m1000 484.375s-21.651-37.5-21.651-37.5h43.301s-21.65 37.5-21.65 37.5z" fill="#505050"/><path d="m600 484.375s-21.65-37.5-21.65-37.5h43.301s-21.651 37.5-21.651 37.5z" fill="#505050"/><path d="m350 431.25s21.651 37.5 21.651 37.5h-43.302s21.651-37.5 21.651-37.5z" fill="#505050"/><path d="m2050 431.25s21.65 37.5 21.65 37.5h-43.3s21.65-37.5 21.65-37.5z" fill="#505050"/><path d="m2062.5 350s37.5-21.651 37.5-21.651v43.302s-37.5-21.651-37.5-21.651z" fill="#505050"/><path d="m337.5 350s-37.5 21.651-37.5 21.651v-43.302s37.5 21.651 37.5 21.651z" fill="#505050"/><path d="m1799.56 484.375s-21.65-37.5-21.65-37.5h43.3s-21.65 37.5-21.65 37.5z" fill="#505050"/><path d="m2150 350v2450" style="fill:none;stroke:#505050;stroke-linecap:round;stroke-linejoin:round;stroke-miterlimit:10;stroke-width:10"/><path d="m250 350v2450" style="fill:none;stroke:#505050;stroke-linecap:round;stroke-linejoin:round;stroke-miterlimit:10;stroke-width:10"/><path d="m2150 2800h-750" style="fill:none;stroke:#505050;stroke-linecap:round;stroke-linejoin:round;stroke-miterlimit:10;stroke-width:10"/><path d="m350 450v2300" style="fill:none;stroke:#505050;stroke-linecap:round;stroke-linejoin:round;stroke-miterlimit:10;stroke-width:10"/><path d="m350 2750h250" style="fill:none;stroke:#505050;stroke-linecap:round;stroke-linejoin:round;stroke-miterlimit:10;stroke-width:10"/><path d="m600 2750v-50" style="fill:none;stroke:#505050;stroke-linecap:round;stroke-linejoin:round;stroke-miterlimit:10;stroke-width:10"/><path d="m1800 2700v50" style="fill:none;stroke:#505050;stroke-linecap:round;stroke-linejoin:round;stroke-miterlimit:10;stroke-width:10"/><path d="m1800 2750h250" style="fill:none;stroke:#505050;stroke-linecap:round;stroke-linejoin:round;stroke-miterlimit:10;stroke-width:10"/><path d="m2050 2750v-2300" style="fill:none;stroke:#505050;stroke-linecap:round;stroke-linejoin:round;stroke-miterlimit:10;stroke-width:10"/><path d="m1598.82 85.526h4.72 13.32 47.55 144.3 144.3 47.55 13.32 4.72v-10c-.82 0-.82 0-4.72 0-5.33 0-5.33 0-13.32 0-19.68 0-19.68 0-47.55 0-65.59 0-65.59 0-144.3 0s-78.71 0-144.3 0c-27.87 0-27.87 0-47.55 0-7.99 0-7.99 0-13.32 0-3.9 0-3.9 0-4.72 0zm439.78-5s-43.31-25-43.31-25-5 8.6603-5 8.6603 28.31 16.3397 28.31 16.3397-28.31 16.3398-28.31 16.3398 5 8.6602 5 8.6602 43.31-25 43.31-25z" fill="#282828"/><path d="m383.545 85.6732h4.647 13.131 46.869 142.222c77.576 0 77.576 0 142.223.0001h46.869 13.131 4.646v-10c-.808 0-.808 0-4.646 0-5.253 0-5.253 0-13.131 0-19.394 0-19.394 0-46.869 0-64.647-.0001-64.647-.0001-142.223-.0001-77.575 0-77.575 0-142.222 0-27.475 0-27.475 0-46.869 0-7.879 0-7.879 0-13.131 0-3.838 0-3.838 0-4.647 0zm-20-5s43.302 24.9998 43.302 24.9998 5-8.6601 5-8.6601-28.302-16.3397-28.302-16.3397 28.302-16.3397 28.302-16.3397-5-8.6603-5-8.6603-43.302 25-43.302 25v-25h-10v49.9998h10z" fill="#282828"/><path d="m79.1914 772.35c0-.879 0-.879 0-5.051 0-5.71 0-5.71 0-14.274 0-21.081 0-21.081.0001-50.946 0-70.271 0-70.271 0-154.596s0-84.325 0-154.596c0-29.865 0-29.865 0-50.946 0-8.564 0-8.564 0-14.274 0-4.172 0-4.172 0-5.051h-10v5.051 14.274 50.946 154.596 154.596c-.0001 29.865-.0001 29.865-.0001 50.946v14.274 5.051zm-5 20s25-43.302 25-43.302-8.6602-5-8.6602-5-16.3398 28.302-16.3398 28.302-16.3397-28.302-16.3397-28.302-8.6603 5-8.6603 5 25 43.302 25 43.302zm0 40s25-43.302 25-43.302-8.6602-5-8.6602-5-16.3398 28.302-16.3398 28.302-16.3397-28.302-16.3397-28.302-8.6603 5-8.6603 5 25 43.302 25 43.302z" fill="#282828"/><path d="m74.2699 1579.99v4.64 12.24 37.13c0 20.25 0 20.25.0001 37.12v12.24 4.64h10c0-.84 0-.84 0-4.64 0-5.06 0-5.06 0-12.24-.0001-16.87-.0001-16.87-.0001-37.12s0-20.25 0-37.13c0-7.17 0-7.17 0-12.24 0-3.79 0-3.79 0-4.64zm5-20s-25 43.31-25 43.31 8.6603 5 8.6603 5 16.3397-28.31 16.3397-28.31 16.3398 28.31 16.3398 28.31 8.6603-5 8.6603-5-25.0001-43.31-25.0001-43.31h25.0001v-10h-50.0001v10z" fill="#282828"/><path d="m68.993 2105v4.94 13.03 39.53 39.54 13.03 4.94h10c0-.9 0-.9 0-4.94 0-5.4 0-5.4 0-13.03 0-17.97 0-17.97 0-39.54 0-21.56 0-21.56 0-39.53 0-7.64 0-7.64 0-13.03 0-4.04 0-4.04 0-4.94zm5 135.01s25-43.3 25-43.3-8.6603-5-8.6603-5-16.3397 28.3-16.3397 28.3-16.3397-28.3-16.3397-28.3-8.6603 5-8.6603 5 25 43.3 25 43.3h-25v10h50v-10z" fill="#282828"/><text fill="#282828" font-family="Arial" font-size="49" font-weight="700" transform="translate(846.06 49.2745)"><tspan x="0" y="44">ASYNCHRONOUS REQUESTS</tspan></text><text fill="#fff" font-family="Arial" font-size="49" transform="translate(1100 300.002)"><tspan x="0" y="44">LowLoop</tspan></text><text fill="#fff" font-family="Arial" font-size="49" transform="translate(1094.68 950)"><tspan x="0" y="44">RainRouter</tspan></text><text fill="#fff" font-family="Arial" font-size="49" transform="translate(501.256 1673.25)"><tspan x="0" y="44">LowNode</tspan></text><text fill="#fff" font-family="Arial" font-size="49" transform="translate(900 1673.25)"><tspan x="0" y="44">LowNode</tspan></text><text fill="#fff" font-family="Arial" font-size="49" transform="translate(1300 1673.25)"><tspan x="0" y="44">LowNode</tspan></text><text fill="#fff" font-family="Arial" font-size="49" transform="translate(501.256 1973.33)"><tspan x="0" y="44">LowNode</tspan></text><text fill="#fff" font-family="Arial" font-size="49" transform="translate(500 2073.25)"><tspan x="0" y="44">LowNode</tspan></text><text fill="#fff" font-family="Arial" font-size="49" transform="translate(900 1973.33)"><tspan x="0" y="44">LowNode</tspan></text><text fill="#fff" font-family="Arial" font-size="49" transform="translate(899.968 2073.25)"><tspan x="0" y="44">LowNode</tspan></text><text fill="#fff" font-family="Arial" font-size="49" transform="translate(1300 1973.33)"><tspan x="0" y="44">LowNode</tspan></text><text fill="#fff" font-family="Arial" font-size="49" transform="translate(483.55 1873.3)"><tspan x="0" y="44">NodeEvent</tspan></text><text fill="#fff" font-family="Arial" font-size="49" transform="translate(900 2173.25)"><tspan x="0" y="44">LowNode</tspan></text><text fill="#fff" font-family="Arial" font-size="49" transform="translate(882.295 1873.3)"><tspan x="0" y="44">NodeEvent</tspan></text><text fill="#fff" font-family="Arial" font-size="49" transform="translate(1282.29 1873.3)"><tspan x="0" y="44">NodeEvent</tspan></text><text fill="#fff" font-family="Arial" font-size="49" transform="translate(912.057 599.363)"><tspan x="0" y="44">Request </tspan><tspan x="28.6033" y="100">Event</tspan></text><text fill="#fff" font-family="Arial" font-size="49" transform="translate(512.249 599.363)"><tspan x="0" y="44">Request </tspan><tspan x="28.6033" y="100">Event</tspan></text><text fill="#fff" font-family="Arial" font-size="49" transform="translate(1318.75 599.681)"><tspan x="0" y="44">Request </tspan><tspan x="28.6033" y="100">Event</tspan></text><text fill="#fff" font-family="Arial" font-size="49" transform="translate(895.956 2445.09)"><tspan x="0" y="44">Response </tspan><tspan x="47.6721" y="100">Event</tspan></text><text fill="#fff" font-family="Arial" font-size="49" transform="translate(496.148 2445.09)"><tspan x="0" y="44">Response </tspan><tspan x="47.6721" y="100">Event</tspan></text><text fill="#fff" font-family="Arial" font-size="49" transform="translate(1302.65 2445.41)"><tspan x="0" y="44">Response </tspan><tspan x="47.6721" y="100">Event</tspan></text><text fill="#fff" font-family="Arial" font-size="49" transform="translate(933.006 1249.68)"><tspan x="0" y="44">Route </tspan><tspan x="2.72754" y="100">Event</tspan></text><text fill="#fff" font-family="Arial" font-size="49" transform="translate(533.197 1249.68)"><tspan x="0" y="44">Route </tspan><tspan x="2.72754" y="100">Event</tspan></text><text fill="#fff" font-family="Arial" font-size="49" transform="translate(1339.7 1250)"><tspan x="0" y="44">Route </tspan><tspan x="2.72754" y="100">Event</tspan></text><text fill="#282828" font-family="Arial" font-size="49" font-weight="700" transform="matrix(-.00000004 -1 1 -.00000004 50.0151 2069.61)"><tspan x="0" y="44">PARALLELISM</tspan></text><path d="m1752.09 1282.61c8.46 0 15.32 6.86 15.32 15.32 0 8.47-6.86 15.33-15.32 15.33s-15.33-6.86-15.33-15.33c0-8.46 6.87-15.32 15.33-15.32z" fill="#fff" fill-rule="evenodd"/><path d="m1798.05 1282.61c8.46 0 15.32 6.86 15.32 15.32 0 8.47-6.86 15.33-15.32 15.33-8.47 0-15.33-6.86-15.33-15.33 0-8.46 6.86-15.32 15.33-15.32z" fill="#fff" fill-rule="evenodd"/><path d="m1844.01 1282.61c8.47 0 15.33 6.86 15.33 15.32 0 8.47-6.86 15.33-15.33 15.33-8.46 0-15.32-6.86-15.32-15.33 0-8.46 6.86-15.32 15.32-15.32z" fill="#fff" fill-rule="evenodd"/><path d="m1752.09 638.273c8.46 0 15.32 6.861 15.32 15.324 0 8.462-6.86 15.323-15.32 15.323s-15.33-6.861-15.33-15.323c0-8.463 6.87-15.324 15.33-15.324z" fill="#fff" fill-rule="evenodd"/><path d="m1798.05 638.273c8.46 0 15.32 6.861 15.32 15.324 0 8.462-6.86 15.323-15.32 15.323-8.47 0-15.33-6.861-15.33-15.323 0-8.463 6.86-15.324 15.33-15.324z" fill="#fff" fill-rule="evenodd"/><path d="m1844.01 638.273c8.47 0 15.33 6.861 15.33 15.324 0 8.462-6.86 15.323-15.33 15.323-8.46 0-15.32-6.861-15.32-15.323 0-8.463 6.86-15.324 15.32-15.324z" fill="#fff" fill-rule="evenodd"/><path d="m1752.09 1687.65c8.46 0 15.32 6.86 15.32 15.33 0 8.46-6.86 15.32-15.32 15.32s-15.33-6.86-15.33-15.32c0-8.47 6.87-15.33 15.33-15.33z" fill="#fff" fill-rule="evenodd"/><path d="m1798.05 1687.65c8.46 0 15.32 6.86 15.32 15.33 0 8.46-6.86 15.32-15.32 15.32-8.47 0-15.33-6.86-15.33-15.32 0-8.47 6.86-15.33 15.33-15.33z" fill="#fff" fill-rule="evenodd"/><path d="m1844.01 1687.65c8.47 0 15.33 6.86 15.33 15.33 0 8.46-6.86 15.32-15.33 15.32-8.46 0-15.32-6.86-15.32-15.32 0-8.47 6.86-15.33 15.32-15.33z" fill="#fff" fill-rule="evenodd"/><path d="m1750.65 2491.97c8.46 0 15.32 6.86 15.32 15.32 0 8.47-6.86 15.33-15.32 15.33s-15.32-6.86-15.32-15.33c0-8.46 6.86-15.32 15.32-15.32z" fill="#fff" fill-rule="evenodd"/><path d="m1796.61 2491.97c8.46 0 15.32 6.86 15.32 15.32 0 8.47-6.86 15.33-15.32 15.33s-15.32-6.86-15.32-15.33c0-8.46 6.86-15.32 15.32-15.32z" fill="#fff" fill-rule="evenodd"/><path d="m1842.58 2491.97c8.46 0 15.32 6.86 15.32 15.32 0 8.47-6.86 15.33-15.32 15.33-8.47 0-15.33-6.86-15.33-15.33 0-8.46 6.86-15.32 15.33-15.32z" fill="#fff" fill-rule="evenodd"/><path d="m77.3083 199.877c20.931-.012 37.9347 16.992 37.9227 37.923.012 20.931-16.9917 37.935-37.9227 37.923-20.931.012-37.9351-16.992-37.9227-37.923-.0124-20.931 16.9917-37.935 37.9227-37.923zm0-8.427c-25.6115.012-46.3376 20.739-46.3499 46.35.0123 25.612 20.7384 46.338 46.3499 46.35 25.6117-.012 46.3377-20.738 46.3497-46.35-.012-25.611-20.738-46.338-46.3497-46.35z" fill="#282828"/><path d="m74.366 240.816c6.1997 6.048 12.3993 12.096 18.599 18.144 1.6313 1.62 4.448 1.56 5.9586-.074 1.5964-1.55 1.5854-4.367-.0738-5.958-6.1998-6.048-12.3994-12.096-18.5991-18.144-1.6313-1.62-4.448-1.56-5.9585.074-1.5961 1.55-1.5858 4.368.0738 5.958z" fill="#282828"/><path d="m81.522 237.8c-.0001-8.894-.0001-17.787 0-26.681.0203-2.299-1.9892-4.273-4.2137-4.214-2.2244-.059-4.2339 1.915-4.2136 4.214v26.681c-.0203 2.299 1.9892 4.273 4.2136 4.214 2.2245.059 4.234-1.915 4.2137-4.214z" fill="#282828"/><path d="m48.9312 65.485h13.2293s14.0828 39.202 14.0828 39.202 14.1303-39.202 14.1303-39.202h13.1814s-21.2423 54.911-21.2423 54.911h-12.1387s-21.2428-54.911-21.2428-54.911z" fill="#d600ab"/><path d="m117.401 50.9882c-2.592 3.3562-6.354 5.0343-11.285 5.0343h-14.8415c-3.983 0-7.0335 1.1809-9.1515 3.5426-1.296 1.4295-2.3234 3.4804-3.0821 6.1529h-5.7374c-1.0432-3.0143-2.197-5.143-3.4614-6.386-2.1812-2.2063-5.5162-3.3095-10.005-3.3095h-12.7077c-1.6122 0-3.3034-.2642-5.0736-.7925-3.0663-.9322-5.5004-2.5171-7.3022-4.7545-1.6438-2.051-2.7344-4.4594-3.2718-7.2251-.3477-1.6781-.5374-4.0864-.569-7.2251h7.5393c.569 2.5793 1.3277 4.3351 2.276 5.2674 1.4541 1.4294 3.9988 2.1442 7.6341 2.1442h11.0007c3.5405 0 6.3539.4661 8.4402 1.3984 3.5089 1.5848 6.3539 4.6924 8.5351 9.3226 1.7386-4.1952 3.7617-7.0153 6.0693-8.4603 2.3077-1.445 5.5004-2.1986 9.5782-2.2607h11.9963c3.509 0 6.038-.8391 7.587-2.5172.917-.9322 1.723-2.5637 2.418-4.8944h7.539s-.094 3.3096-.094 3.3096c-.127 4.4438-1.47 8.3282-4.031 11.6533z" fill="#d600aa"/><path d="m117.401 50.9882c-2.592 3.3562-6.354 5.0343-11.285 5.0343h-14.8415c-3.983 0-7.0335 1.1809-9.1515 3.5426-1.296 1.4295-2.3234 3.4804-3.0821 6.1529h-5.7374c-1.0432-3.0143-2.197-5.143-3.4614-6.386-2.1812-2.2063-5.5162-3.3095-10.005-3.3095h-12.7077c-1.6122 0-3.3034-.2642-5.0736-.7925-3.0663-.9322-5.5004-2.5171-7.3022-4.7545-1.6438-2.051-2.7344-4.4594-3.2718-7.2251-.3477-1.6781-.5374-4.0864-.569-7.2251h7.5393c.569 2.5793 1.3277 4.3351 2.276 5.2674 1.4541 1.4294 3.9988 2.1442 7.6341 2.1442h11.0007c3.5405 0 6.3539.4661 8.4402 1.3984 3.5089 1.5848 6.3539 4.6924 8.5351 9.3226 1.7386-4.1952 3.7617-7.0153 6.0693-8.4603 2.3077-1.445 5.5004-2.1986 9.5782-2.2607h11.9963c3.509 0 6.038-.8391 7.587-2.5172.917-.9322 1.723-2.5637 2.418-4.8944h7.539s-.094 3.3096-.094 3.3096c-.127 4.4438-1.47 8.3282-4.031 11.6533z" fill="#4657ff"/></svg>